<?xml version="1.0" encoding="utf-8"?>
<!-- Generator: Adobe Illustrator 16.0.5, SVG Export Plug-In . SVG Version: 6.00 Build 0)  -->
<!DOCTYPE svg PUBLIC "-//W3C//DTD SVG 1.1//EN" "http://www.w3.org/Graphics/SVG/1.1/DTD/svg11.dtd">
<svg version="1.1" id="Ebene_1" xmlns="http://www.w3.org/2000/svg" xmlns:xlink="http://www.w3.org/1999/xlink" x="0px" y="0px"
	 width="217.553px" height="28.581px" viewBox="0 0 217.553 28.581" enable-background="new 0 0 217.553 28.581"
	 xml:space="preserve">
<g>
	<rect x="103.229" y="9.198" fill="#64B2AF" width="8.787" height="1.6"/>
</g>
<g>
	<rect x="103.229" y="13.49" fill="#64B2AF" width="8.787" height="1.6"/>
</g>
<g>
	<rect x="103.229" y="17.782" fill="#64B2AF" width="8.787" height="1.6"/>
</g>
<g>
	<polygon fill="#302F78" points="98.628,28.581 93.332,28.581 93.332,0 98.628,0 98.628,1.6 94.932,1.6 94.932,26.981 
		98.628,26.981 	"/>
</g>
<g>
	<polygon fill="#302F78" points="121.912,28.581 116.614,28.581 116.614,26.981 120.312,26.981 120.312,1.6 116.614,1.6 116.614,0 
		121.912,0 	"/>
</g>
<path fill="#64B2AF" d="M112.955,3.679H99.202v21.223h16.839V6.766L112.955,3.679z M100.802,23.302V5.278h11.209V7.71h2.431v15.592
	H100.802z"/>
<g>
	<path fill="#302F78" d="M133.194,12.407h-0.921l-1.573,7.401l1.7,0.232l-0.131,0.619h-6.493l0.131-0.619l1.748-0.206l3.316-15.604
		l-1.914-0.31l0.137-0.646c0.956,0.052,2.465,0.104,3.455,0.104h1.151c0.898,0,1.628-0.077,2.595-0.077
		c3.868,0,5.146,1.573,4.543,4.41c-0.554,2.604-2.762,4.437-5.387,4.437h-0.529c3.499,0.541,4.072,2.398,3.305,6.009
		c-0.351,1.65-0.098,2.296,0.686,2.296c0.368,0,0.862-0.155,1.47-0.413l-0.108,0.619c-0.837,0.361-1.83,0.593-2.659,0.593
		c-1.819,0-2.611-0.929-2.647-2.166C135.131,16.404,137.201,12.407,133.194,12.407z M132.433,11.659h0.783
		c2.325,0,3.946-1.238,4.522-3.946c0.537-2.527-0.125-3.637-2.197-3.637c-0.646,0-1.255,0.052-1.519,0.104L132.433,11.659z"/>
	<path fill="#302F78" d="M142.624,14.393c0.854-4.023,3.798-6.603,7.159-6.603c3.224,0,4.45,1.702,3.869,4.437
		c-0.082,0.387-0.183,0.748-0.354,1.237h-7.3l-0.192,0.903c-0.789,3.714-0.507,5.854,1.474,5.854c1.542,0,3.261-0.825,4.407-2.321
		c0.214,0.077,0.469,0.181,0.392,0.542c-0.143,0.67-1.867,2.501-5.321,2.501C143.465,20.943,141.79,18.313,142.624,14.393z
		 M150.662,12.536c0.078-0.258,0.173-0.594,0.233-0.877c0.384-1.806,0.139-3.146-1.288-3.146c-1.475,0-2.591,1.676-3.343,4.023
		H150.662z"/>
	<path fill="#302F78" d="M160.599,18.674c-1.012,1.729-2.491,2.296-4.172,2.296c-1.566,0-2.877-0.98-2.466-2.915
		c0.597-2.811,3.456-4.126,7.555-4.126l0.443-2.089c0.423-1.986,0.338-3.431-1.09-3.431c-1.174,0-2.16,0.954-2.517,2.631
		c-0.065,0.31-0.119,0.671-0.127,1.031c-0.372,0.232-0.768,0.361-1.113,0.361c-0.714,0-1.254-0.49-1.023-1.573
		c0.515-2.425,3.421-3.095,4.802-3.095c3.822,0,4.33,1.728,3.749,4.462l-1.634,7.686l1.879,0.154l-0.121,0.567l-4.451,0.361
		L160.599,18.674z M161.367,14.625c-1.962,0.025-3.919,0.671-4.467,3.25c-0.247,1.16,0.027,2.037,1.04,2.037
		c1.014,0,2.515-1.212,2.955-3.069L161.367,14.625z"/>
	<path fill="#302F78" d="M181.918,0.853l-4.084,19.214l1.935,0.104l-0.103,0.593l-4.878,0.31l0.539-2.321h-0.138
		c-1.096,1.471-2.814,2.296-4.38,2.296c-2.579,0-4.458-1.883-3.526-6.268c0.927-4.358,3.882-6.886,7.497-6.886
		c0.714,0,1.852,0.283,2.534,0.748l1.393-6.551l-1.946-0.155l0.137-0.645L181.918,0.853z M177.09,9.596
		c-0.503-0.671-1.433-0.954-2.146-0.954c-2.533,0-3.659,2.914-4.333,6.087c-0.834,3.92-0.408,5.493,1.02,5.493
		c1.889,0,3.694-2.321,3.952-3.533L177.09,9.596z"/>
	<path fill="#302F78" d="M185.359,8.925l-1.953-0.129l0.115-0.541l4.999-0.336l-2.55,11.993l1.464,0.154l-0.126,0.594h-5.94
		l0.126-0.594l1.529-0.154L185.359,8.925z M186.153,3.561c0.22-1.031,1.153-1.96,2.167-1.96c0.944,0,1.507,0.929,1.287,1.96
		c-0.225,1.058-1.171,1.935-2.115,1.935C186.479,5.495,185.924,4.644,186.153,3.561z"/>
	<path fill="#302F78" d="M193.936,19.912l1.694,0.154l-0.126,0.594h-6.171l0.126-0.594l1.552-0.154l2.336-10.987l-1.866-0.103
		l0.115-0.542l4.785-0.31l-0.674,2.631h0.23c1.225-1.754,2.924-2.708,4.536-2.708c2.279,0,3.453,1.083,2.84,3.972
		c-0.636,2.992-1.149,5.081-1.872,8.047l1.557,0.154l-0.126,0.594H197.3l0.126-0.594l1.138-0.154
		c0.66-2.889,1.262-5.287,1.876-8.176c0.411-1.935,0.297-2.914-0.992-2.914c-1.682,0-3.725,2.682-3.977,3.868L193.936,19.912z"/>
	<path fill="#302F78" d="M208.284,18.081c-0.181,0.851,0.874,0.979,3.42,1.238c2.704,0.283,4.271,1.031,3.811,3.197
		c-0.537,2.528-3.379,4.849-7.569,4.849c-3.661,0-4.973-1.521-4.545-3.533c0.258-1.212,1.352-2.785,3.332-3.327
		c-0.798-0.36-1.415-0.928-1.212-1.883c0.258-1.212,1.747-1.934,2.95-1.96c-1.965-0.619-2.741-2.27-2.309-4.307
		c0.548-2.579,2.928-4.565,6.151-4.565c0.483,0,1.094,0.052,1.492,0.129c0.849-0.31,1.322-1.237,1.52-2.166
		c0.082-0.387,0.146-0.8,0.108-1.161c0.292-0.181,0.637-0.283,0.936-0.283c0.691,0,1.341,0.516,1.149,1.418
		c-0.292,1.265-1.434,2.192-3.123,2.45c1.74,0.696,2.373,2.27,1.967,4.179c-0.493,2.321-3.146,4.514-5.726,4.514
		C208.934,16.869,208.399,17.539,208.284,18.081z M210.114,21.279c-0.738-0.104-1.568-0.207-2.451-0.387
		c-0.756,0.412-1.492,1.495-1.738,2.656c-0.395,1.856,0.331,2.991,2.403,2.991c2.003,0,4.102-1.315,4.52-3.172
		C213.193,21.743,212.172,21.562,210.114,21.279z M213.323,12.355c0.505-2.373,0.366-3.998-1.131-3.998
		c-1.496,0-2.486,1.625-2.991,3.998c-0.472,2.218-0.343,3.997,1.131,3.997C211.852,16.353,212.852,14.573,213.323,12.355z"/>
</g>
<g>
	<path fill="#64B2AF" d="M15.229,12.157c0,2.756-0.856,4.863-2.568,6.32c-1.713,1.459-4.168,2.188-7.367,2.188H0V3.969h5.852
		c2.957,0,5.259,0.713,6.906,2.141C14.404,7.537,15.229,9.553,15.229,12.157z M12.705,12.226c0-2.124-0.596-3.732-1.788-4.825
		S7.924,5.762,5.514,5.762H2.393V18.86H4.98C10.131,18.86,12.705,16.649,12.705,12.226z"/>
	<path fill="#64B2AF" d="M19.044,4.733c0-0.457,0.132-0.788,0.396-0.993c0.265-0.206,0.592-0.309,0.982-0.309
		c0.363,0,0.683,0.103,0.955,0.309c0.273,0.205,0.41,0.536,0.41,0.993c0,0.449-0.137,0.78-0.41,0.994
		c-0.272,0.213-0.592,0.319-0.955,0.319c-0.391,0-0.718-0.106-0.982-0.319C19.176,5.514,19.044,5.183,19.044,4.733z M21.566,20.665
		h-2.341V8.125h2.341V20.665z"/>
	<path fill="#64B2AF" d="M35.454,17.205c0,1.172-0.498,2.08-1.495,2.724s-2.397,0.965-4.2,0.965c-1.882,0-3.377-0.263-4.487-0.788
		v-1.873c1.569,0.67,3.082,1.005,4.539,1.005c1.179,0,2.037-0.167,2.575-0.502c0.537-0.335,0.806-0.784,0.806-1.348
		c0-0.495-0.258-0.914-0.773-1.257s-1.433-0.734-2.751-1.176c-1.344-0.457-2.288-0.848-2.835-1.171
		c-0.546-0.323-0.947-0.687-1.202-1.091c-0.256-0.403-0.384-0.895-0.384-1.473c0-1.028,0.477-1.839,1.431-2.433
		c0.953-0.594,2.263-0.892,3.927-0.892c1.621,0,3.139,0.282,4.552,0.846l-0.793,1.633c-1.448-0.532-2.753-0.799-3.915-0.799
		c-0.971,0-1.708,0.135-2.21,0.405c-0.503,0.271-0.755,0.642-0.755,1.113c0,0.457,0.217,0.836,0.65,1.137s1.443,0.717,3.03,1.25
		c1.188,0.389,2.065,0.75,2.633,1.085c0.568,0.335,0.986,0.712,1.256,1.131C35.32,16.116,35.454,16.618,35.454,17.205z"/>
	<path fill="#64B2AF" d="M44.052,19.215c0.303,0,0.658-0.026,1.066-0.08c0.407-0.054,0.715-0.114,0.923-0.183v1.576
		c-0.217,0.084-0.553,0.165-1.008,0.245s-0.917,0.12-1.385,0.12c-2.792,0-4.188-1.291-4.188-3.872V9.725h-2.016V8.742l2.041-0.822
		l0.937-2.673h1.392v2.878h4.123v1.6h-4.123v7.24c0,0.724,0.197,1.279,0.592,1.667C42.801,19.021,43.35,19.215,44.052,19.215z"/>
	<path fill="#64B2AF" d="M58.019,20.665l-0.455-1.781h-0.104c-0.711,0.784-1.42,1.315-2.126,1.593
		c-0.707,0.278-1.598,0.417-2.673,0.417c-1.404,0-2.506-0.323-3.303-0.971c-0.798-0.647-1.196-1.561-1.196-2.741
		c0-2.543,2.284-3.875,6.853-3.997l2.419-0.08v-0.742c0-0.951-0.233-1.654-0.702-2.107c-0.468-0.452-1.218-0.679-2.25-0.679
		c-0.754,0-1.467,0.099-2.139,0.297c-0.672,0.197-1.303,0.418-1.893,0.662l-0.715-1.542c0.72-0.335,1.504-0.598,2.354-0.788
		s1.69-0.285,2.523-0.285c1.725,0,3.008,0.335,3.849,1.005s1.262,1.736,1.262,3.197v8.543H58.019z M53.193,19.237
		c1.31,0,2.339-0.31,3.089-0.931c0.75-0.62,1.125-1.502,1.125-2.644v-1.131l-2.107,0.08c-1.638,0.054-2.833,0.281-3.582,0.686
		c-0.75,0.403-1.125,1.039-1.125,1.907c0,0.654,0.228,1.157,0.683,1.507C51.73,19.062,52.37,19.237,53.193,19.237z"/>
	<path fill="#64B2AF" d="M73.879,20.665v-8.018c0-1.02-0.258-1.779-0.774-2.278c-0.516-0.498-1.324-0.748-2.425-0.748
		c-1.466,0-2.529,0.356-3.192,1.068c-0.664,0.712-0.995,1.871-0.995,3.478v6.498h-2.341V8.125h1.886l0.351,1.714h0.131
		c0.441-0.617,1.062-1.095,1.859-1.434s1.678-0.509,2.64-0.509c1.751,0,3.052,0.374,3.901,1.12s1.274,1.907,1.274,3.482v8.166
		H73.879z"/>
	<path fill="#64B2AF" d="M85.457,19.215c0.304,0,0.659-0.026,1.066-0.08s0.716-0.114,0.924-0.183v1.576
		c-0.217,0.084-0.553,0.165-1.008,0.245c-0.456,0.08-0.917,0.12-1.386,0.12c-2.791,0-4.188-1.291-4.188-3.872V9.725h-2.016V8.742
		l2.042-0.822l0.937-2.673h1.392v2.878h4.122v1.6h-4.122v7.24c0,0.724,0.196,1.279,0.592,1.667
		C84.206,19.021,84.755,19.215,85.457,19.215z"/>
</g>
</svg>
